<?xml version="1.0" encoding="UTF-8"?>
<svg width="126px" height="23px" viewBox="0 0 126 23" version="1.1" 
    xmlns="http://www.w3.org/2000/svg" 
    xmlns:xlink="http://www.w3.org/1999/xlink">
    <!-- Generator: Sketch 50.2 (55047) - http://www.bohemiancoding.com/sketch -->
    <title>myGiGroupLogo</title>
    <desc>Created with Sketch.</desc>
    <defs>
        <polygon id="path-1" points="33.101706 16.2735917 0 16.2735917 0 8.15356267 0 0.0335336419 33.101706 0.0335336419 33.101706 16.2735917"></polygon>
        <polygon id="path-3" points="0.0514666671 16.4402803 25.9583164 16.4402803 25.9583164 8.237059 25.9583164 0.0338377385 0.0514666671 0.0338377385"></polygon>
    </defs>
    <g id="Page-1" stroke="none" stroke-width="1" fill="none" fill-rule="evenodd">
        <g id="Style-Guide" transform="translate(-470.000000, -306.000000)">
            <g id="myGiGroupLogo" transform="translate(470.000000, 306.000000)">
                <g id="Group-2">
                    <g id="Group" transform="translate(0.000000, 6.336000)">
                        <mask id="mask-2" fill="white">
                            <use xlink:href="#path-1"></use>
                        </mask>
                        <g id="Clip-2"></g>
                        <path d="M0,0.223473655 L3.7377667,0.223473655 L3.7377667,1.50650349 C4.6253829,0.413600617 5.83999624,0.0335336419 6.86785911,0.0335336419 C7.61559626,0.0335336419 8.31627817,0.199731153 8.87689722,0.508757572 C9.64779437,0.912567048 10.0683506,1.50650349 10.3253163,2.02921242 C10.7458725,1.26889152 11.2831477,0.817597042 11.7503915,0.556055626 C12.4977611,0.128503648 13.2219706,0.0335336419 13.9228363,0.0335336419 C14.6937335,0.0335336419 15.9552182,0.15224615 16.8194906,1.007724 C17.7539782,1.93424241 17.8006659,3.19352974 17.8006659,3.92992119 L17.8006659,10.8440368 L14.063083,10.8440368 L14.063083,5.59320495 C14.063083,4.47637263 13.9461801,3.71623868 13.5256239,3.31224225 C13.3153458,3.12211529 13.0352201,2.95573083 12.5446325,2.95573083 C12.1240763,2.95573083 11.7737353,3.07463029 11.4465544,3.3836567 C10.8159039,4.00133564 10.7692163,4.88036905 10.7692163,5.40307798 L10.7692163,10.8440368 L7.03144959,10.8440368 L7.03144959,5.59320495 C7.03144959,4.57152958 6.96141816,3.76372368 6.54086196,3.31224225 C6.21386482,2.95573083 5.79349243,2.88469027 5.41962386,2.88469027 C5.02241147,2.88469027 4.69541433,2.95573083 4.39176099,3.26475725 C3.7377667,3.90617869 3.7377667,4.92785405 3.7377667,5.59320495 L3.7377667,10.8440368 L0,10.8440368 L0,0.223473655" id="Fill-1" fill="#ffffff" mask="url(#mask-2)"></path>
                        <polyline id="Fill-3" fill="#ffffff" mask="url(#mask-2)" points="24.0378745 9.39462249 18.9919354 0.223473655 23.3370088 0.223473655 26.116944 5.66443245 28.8268479 0.223473655 33.101706 0.223473655 24.7153964 16.2848086 20.5337297 16.2848086 24.0378745 9.39462249"></polyline>
                    </g>
                    <path d="M41.997168,8.15769922 L50.0331366,8.15769922 C50.0331366,11.2937659 49.4024861,13.5272436 47.5335109,15.2854973 C45.8983414,16.8296947 44.0293661,17.2811761 42.0438556,17.2811761 C39.2405765,17.2811761 37.3250975,16.2359452 36.0636127,14.9289859 C34.8955032,13.741113 33.8209527,11.8164748 33.8209527,9.20311708 C33.8209527,6.68454242 34.8021279,4.61744919 36.1569879,3.26319186 C37.4418165,1.95641952 39.4508546,0.934744158 42.2072623,0.934744158 C43.6556813,0.934744158 45.2208194,1.26732613 46.4122728,2.00390453 C47.6270699,2.76422542 48.6314052,4.02332581 49.192208,5.25905758 L45.3375385,6.87448244 C45.0574128,6.13809099 44.6135128,5.61538206 44.2163004,5.28280008 C43.5389623,4.7124192 42.8147528,4.49854974 42.0438556,4.49854974 C41.0860242,4.49854974 40.1050327,4.85506116 39.3806394,5.59163955 C38.4696794,6.51815796 38.0257794,7.99131476 38.0257794,9.22667264 C38.0257794,10.6760869 38.5397108,11.8641468 39.2639203,12.6480232 C40.0114737,13.4560161 40.9224337,13.8600125 42.113887,13.8600125 C42.8147528,13.8600125 43.6323375,13.741113 44.3565471,13.1232471 C44.7302318,12.8144077 45.1741318,12.2442137 45.3141947,11.3651803 L41.997168,11.3651803 L41.997168,8.15769922" id="Fill-5" fill="#ffffff"></path>
                    <path d="M52.2517176,17.1781673 L55.9893005,17.1781673 L55.9893005,6.55760417 L52.2517176,6.55760417 L52.2517176,17.1781673 Z M54.120509,0 C55.2884348,0 56.2229224,0.95044786 56.2229224,2.13850768 C56.2229224,3.32638056 55.2884348,4.27682842 54.120509,4.27682842 C52.9523995,4.27682842 52.0180957,3.32638056 52.0180957,2.13850768 C52.0180957,0.95044786 52.9523995,0 54.120509,0 L54.120509,0 Z" id="Fill-6" fill="#ffffff"></path>
                    <path d="M66.0762158,8.15769922 L74.1123683,8.15769922 C74.1123683,11.2937659 73.481534,13.5272436 71.6127425,15.2854973 C69.9773892,16.8296947 68.1085977,17.2811761 66.1230872,17.2811761 C63.3198082,17.2811761 61.4041453,16.2359452 60.1426605,14.9289859 C58.9747348,13.741113 57.9000005,11.8164748 57.9000005,9.20311708 C57.9000005,6.68454242 58.8811758,4.61744919 60.2360358,3.26319186 C61.5210482,1.95641952 63.5299025,0.934744158 66.2863101,0.934744158 C67.7347292,0.934744158 69.3000511,1.26732613 70.4913206,2.00390453 C71.7061178,2.76422542 72.7106368,4.02332581 73.2712559,5.25905758 L69.4169539,6.87448244 C69.1364606,6.13809099 68.6925606,5.61538206 68.295532,5.28280008 C67.6178263,4.7124192 66.8938006,4.49854974 66.1230872,4.49854974 C65.1652558,4.49854974 64.1840806,4.85506116 63.459871,5.59163955 C62.5487272,6.51815796 62.105011,7.99131476 62.105011,9.22667264 C62.105011,10.6760869 62.6187586,11.8641468 63.343152,12.6480232 C64.0907053,13.4560161 65.0016653,13.8600125 66.1931187,13.8600125 C66.8938006,13.8600125 67.7113854,13.741113 68.4357787,13.1232471 C68.8094635,12.8144077 69.2531797,12.2442137 69.3934263,11.3651803 L66.0762158,11.3651803 L66.0762158,8.15769922" id="Fill-7" fill="#ffffff"></path>
                    <path d="M76.280953,6.52245779 L80.0187197,6.52245779 L80.0187197,8.25696905 C80.3924045,7.54413315 80.9296798,7.06890922 81.4904826,6.7839992 C82.0511017,6.47497278 82.7284398,6.35626027 83.4293055,6.35626027 C83.5226807,6.35626027 83.6862712,6.38000278 84.1768588,6.40355833 L84.1768588,9.99148031 C83.9899245,9.89632335 83.4761769,9.61122638 82.5650331,9.61122638 C82.0744455,9.61122638 81.3969236,9.68264084 80.8596483,10.1814203 C80.0654074,10.9179987 80.0187197,12.034831 80.0187197,12.604838 L80.0187197,17.1430209 L76.280953,17.1430209 L76.280953,6.52245779" id="Fill-8" fill="#ffffff"></path>
                    <path d="M89.521856,10.0896284 C89.0546122,10.5411099 88.7976465,11.2062738 88.7976465,11.8239528 C88.7976465,12.4655611 89.1012998,13.0832401 89.521856,13.5107921 C89.965756,13.9622735 90.5730627,14.2238149 91.2037132,14.2238149 C91.8112037,14.2238149 92.4185103,13.9622735 92.8624103,13.5107921 C93.3296541,13.0594976 93.5866199,12.4418186 93.5866199,11.8239528 C93.5866199,11.2537588 93.3296541,10.5648524 92.8624103,10.0896284 C92.4418541,9.68581897 91.7878598,9.40053505 91.2037132,9.40053505 C90.5964065,9.40053505 89.9424122,9.68581897 89.521856,10.0896284 L89.521856,10.0896284 Z M95.8524399,15.7444567 C94.4742361,17.1224565 92.8624103,17.5025235 91.1803694,17.5025235 C89.6619189,17.5025235 87.9800617,17.193684 86.5316427,15.7444567 C85.3870607,14.6038819 84.9200007,13.2496245 84.9200007,11.8239528 C84.9200007,9.92324398 85.7607455,8.6878861 86.5316427,7.92737826 C87.395915,7.07208735 88.9145493,6.16931144 91.1803694,6.16931144 C93.4930608,6.16931144 94.9881675,7.0960168 95.8524399,7.92737826 C96.623337,8.6878861 97.4644494,9.92324398 97.4644494,11.8239528 C97.4644494,13.2496245 96.9972056,14.6038819 95.8524399,15.7444567 L95.8524399,15.7444567 Z" id="Fill-9" fill="#ffffff"></path>
                    <g id="Group-13" transform="translate(99.440953, 6.169311)">
                        <mask id="mask-4" fill="white">
                            <use xlink:href="#path-3"></use>
                        </mask>
                        <g id="Clip-11"></g>
                        <path d="M3.78904956,0.390162212 L3.78904956,6.33008744 C3.78904956,6.75782637 3.85908099,7.42299031 4.34985242,7.87428479 C4.72353718,8.20705371 5.213941,8.27846816 5.657841,8.27846816 C6.12508482,8.27846816 6.56880101,8.23098316 6.98954101,7.82679978 C7.45660102,7.3517628 7.52663245,6.80531137 7.52663245,6.33008744 L7.52663245,0.390162212 L11.2643991,0.390162212 L11.2643991,7.01899388 C11.2643991,7.92195674 11.1941839,8.89596015 10.2598801,9.87015051 C8.97505151,11.2244079 7.17629149,11.3670498 5.75140005,11.3670498 C4.18607813,11.3670498 2.27078288,11.2006653 1.03264191,9.84640801 C0.238217145,8.99111711 0.0514666671,8.04066925 0.0514666671,7.01899388 L0.0514666671,0.390162212 L3.78904956,0.390162212" id="Fill-10" fill="#ffffff" mask="url(#mask-4)"></path>
                        <path d="M18.0624106,3.97789724 C17.5953506,4.45312117 17.3382011,5.14202761 17.3382011,5.736151 C17.3382011,6.35382994 17.6651982,7.01899388 18.0624106,7.42299031 C18.5063106,7.87428479 19.1134335,8.1358262 19.7442678,8.1358262 C20.3984459,8.1358262 20.9824088,7.87428479 21.4027811,7.42299031 C21.8001773,7.01899388 22.1271745,6.37775939 22.1271745,5.736151 C22.1271745,5.14202761 21.8702088,4.45312117 21.4027811,3.97789724 C20.9824088,3.52660276 20.3984459,3.26506134 19.7442678,3.26506134 C19.1134335,3.26506134 18.5063106,3.52660276 18.0624106,3.97789724 L18.0624106,3.97789724 Z M17.4549202,16.4514972 L13.7173373,16.4514972 L13.7173373,0.390162212 L17.4549202,0.390162212 L17.4549202,1.55447953 C18.1090983,0.722744183 19.1134335,0.0338377385 20.6554116,0.0338377385 C22.2674211,0.0338377385 23.5289059,0.722744183 24.3696507,1.57822204 C25.2341069,2.45725544 25.9583164,3.85918473 25.9583164,5.68847905 C25.9583164,7.47047531 25.2807945,8.89596015 24.2762754,9.89389302 C23.1083497,11.0582103 21.7533059,11.3670498 20.7020992,11.3670498 C20.0245773,11.3670498 18.6230297,11.2244079 17.4549202,9.98904997 L17.4549202,16.4514972 L17.4549202,16.4514972 Z" id="Fill-12" fill="#ffffff" mask="url(#mask-4)"></path>
                    </g>
                </g>
            </g>
        </g>
    </g>
</svg>