<?xml version="1.0" encoding="UTF-8"?>
<svg width="157px" height="62px" viewBox="0 0 157 62" version="1.1" xmlns="http://www.w3.org/2000/svg" xmlns:xlink="http://www.w3.org/1999/xlink">
    <!-- Generator: Sketch 50.2 (55047) - http://www.bohemiancoding.com/sketch -->
    <title>Logo GiGroup color</title>
    <desc>Created with Sketch.</desc>
    <defs></defs>
    <g id="Page-1" stroke="none" stroke-width="1" fill="none" fill-rule="evenodd">
        <g id="Style-Guide" transform="translate(-80.000000, -287.000000)">
            <g id="Logo-GiGroup-color" transform="translate(80.000000, 287.000000)">
                <polygon id="Fill-1" fill="#646464" points="73.4669301 48.1110289 74.8271952 48.1110289 75.8767133 50.1958723 77.0218458 48.1110289 78.3910747 48.1110289 76.4982072 51.3559446 76.4982072 54.1085952 75.3284241 54.1085952 75.3284241 51.3559446"></polygon>
                <path d="M81.3813422,49.1052699 C80.2758,49.1052699 79.6229325,50.0845711 79.6229325,51.0541614 C79.6229325,51.9774386 80.0845711,53.1143542 81.3813422,53.1143542 C82.6781133,53.1143542 83.1397518,51.9774386 83.1397518,51.0541614 C83.1397518,50.0845711 82.4868843,49.1052699 81.3813422,49.1052699 L81.3813422,49.1052699 Z M81.3813422,54.2684506 C79.5519687,54.2684506 78.415053,52.8671012 78.415053,51.1019687 C78.415053,49.3204024 79.590812,47.9511735 81.3813422,47.9511735 C83.1718723,47.9511735 84.3483783,49.3204024 84.3483783,51.1019687 C84.3483783,52.8671012 83.2107157,54.2684506 81.3813422,54.2684506 L81.3813422,54.2684506 Z" id="Fill-2" fill="#646464"></path>
                <path d="M84.8962193,48.1110289 L86.0652554,48.1110289 L86.0652554,51.4679928 C86.0652554,52.2075108 86.1287494,53.249559 87.1229904,53.249559 C88.1179783,53.249559 88.1814723,52.2075108 88.1814723,51.4679928 L88.1814723,48.1110289 L89.3512554,48.1110289 L89.3512554,51.6980651 C89.3512554,53.1621614 88.7305084,54.2684506 87.1229904,54.2684506 C85.5169663,54.2684506 84.8962193,53.1621614 84.8962193,51.6980651 L84.8962193,48.1110289 Z" id="Fill-4" fill="#646464"></path>
                <path d="M91.3549012,50.8711494 L91.5057928,50.8711494 C92.1504434,50.8711494 92.6038651,50.6791735 92.6038651,49.9486193 C92.6038651,49.2083542 92.1340096,49.0656795 91.5140096,49.0656795 L91.3549012,49.0656795 L91.3549012,50.8711494 Z M94.2420096,54.1085952 L92.8264675,54.1085952 L91.369841,51.6905952 L91.3549012,51.6905952 L91.3549012,54.1085952 L90.1858651,54.1085952 L90.1858651,48.1110289 L91.7679855,48.1110289 C92.9534554,48.1110289 93.7729012,48.6354145 93.7729012,49.9164988 C93.7729012,50.6791735 93.350853,51.4440892 92.547094,51.579294 L94.2420096,54.1085952 Z" id="Fill-6" fill="#646464"></path>
                <path d="M99.2045494,52.072306 C99.2045494,52.628812 99.1896096,53.1061373 98.854959,53.5924265 C98.544212,54.0458482 98.0512,54.2684506 97.5103807,54.2684506 C97.0726458,54.2684506 96.627441,54.0137277 96.3323807,53.7037277 L97.0801157,52.8439446 C97.1368867,53.0187398 97.3430554,53.2338723 97.5342843,53.2338723 C98.1072241,53.2338723 98.0355133,52.2635349 98.0355133,51.8736072 L98.0355133,48.1110289 L99.2045494,48.1110289 L99.2045494,52.072306 Z" id="Fill-8" fill="#646464"></path>
                <path d="M102.720248,49.1052699 C101.614706,49.1052699 100.961839,50.0845711 100.961839,51.0541614 C100.961839,51.9774386 101.42273,53.1143542 102.720248,53.1143542 C104.017019,53.1143542 104.477911,51.9774386 104.477911,51.0541614 C104.477911,50.0845711 103.82579,49.1052699 102.720248,49.1052699 M102.720248,54.2684506 C100.890875,54.2684506 99.753212,52.8671012 99.753212,51.1019687 C99.753212,49.3204024 100.929718,47.9511735 102.720248,47.9511735 C104.510031,47.9511735 105.687284,49.3204024 105.687284,51.1019687 C105.687284,52.8671012 104.549622,54.2684506 102.720248,54.2684506" id="Fill-10" fill="#646464"></path>
                <path d="M107.436282,53.1695566 L107.682788,53.1695566 C108.311005,53.1695566 108.851824,53.0911229 108.851824,52.3112675 C108.851824,51.531412 108.21539,51.4992916 107.628258,51.4992916 L107.436282,51.4992916 L107.436282,53.1695566 Z M107.436282,50.6088819 L107.579704,50.6088819 C108.151896,50.6088819 108.430523,50.4415566 108.430523,49.8208096 C108.430523,49.2082795 108.080933,49.0499181 107.587173,49.0499181 L107.436282,49.0499181 L107.436282,50.6088819 Z M106.267246,48.1109542 L107.722378,48.1109542 C108.836884,48.1109542 109.521125,48.5486892 109.521125,49.7416289 C109.521125,50.171894 109.369487,50.664159 108.995246,50.9024482 C109.70339,51.0301831 110.02086,51.7457976 110.02086,52.4061349 C110.02086,53.583388 109.194692,54.1085205 108.104089,54.1085205 L106.267246,54.1085205 L106.267246,48.1109542 Z" id="Fill-12" fill="#646464"></path>
                <polygon id="Fill-14" fill="#646464" points="112.335925 52.9789253 111.190046 55.3737687 110.451275 55.2863711 111.317781 52.8676241"></polygon>
                <path d="M117.966347,49.1052699 C116.860805,49.1052699 116.207937,50.0845711 116.207937,51.0541614 C116.207937,51.9774386 116.669576,53.1143542 117.966347,53.1143542 C119.263118,53.1143542 119.724757,51.9774386 119.724757,51.0541614 C119.724757,50.0845711 119.071889,49.1052699 117.966347,49.1052699 M117.966347,54.2684506 C116.136973,54.2684506 114.999311,52.8671012 114.999311,51.1019687 C114.999311,49.3204024 116.175817,47.9511735 117.966347,47.9511735 C119.756877,47.9511735 120.933383,49.3204024 120.933383,51.1019687 C120.933383,52.8671012 119.79572,54.2684506 117.966347,54.2684506" id="Fill-16" fill="#646464"></path>
                <path d="M121.48212,48.1110289 L122.651157,48.1110289 L122.651157,51.4679928 C122.651157,52.2075108 122.714651,53.249559 123.708892,53.249559 C124.703133,53.249559 124.766627,52.2075108 124.766627,51.4679928 L124.766627,48.1110289 L125.93641,48.1110289 L125.93641,51.6980651 C125.93641,53.1621614 125.31641,54.2684506 123.708892,54.2684506 C122.101373,54.2684506 121.48212,53.1621614 121.48212,51.6980651 L121.48212,48.1110289 Z" id="Fill-18" fill="#646464"></path>
                <path d="M127.939981,50.8711494 L128.090872,50.8711494 C128.735523,50.8711494 129.188945,50.6791735 129.188945,49.9486193 C129.188945,49.2083542 128.719089,49.0656795 128.099089,49.0656795 L127.939981,49.0656795 L127.939981,50.8711494 Z M130.827089,54.1085952 L129.411547,54.1085952 L127.95492,51.6905952 L127.939981,51.6905952 L127.939981,54.1085952 L126.770945,54.1085952 L126.770945,48.1110289 L128.353065,48.1110289 C129.538535,48.1110289 130.357981,48.6354145 130.357981,49.9164988 C130.357981,50.6791735 129.935933,51.4440892 129.132173,51.579294 L130.827089,54.1085952 Z" id="Fill-20" fill="#646464"></path>
                <polygon id="Fill-22" fill="#646464" points="135.416284 52.1993687 135.431224 52.1993687 136.624911 48.0311759 137.317369 48.0311759 138.558863 52.1993687 138.573802 52.1993687 139.751802 48.1111036 140.976116 48.1111036 138.948043 54.228188 138.089007 54.228188 136.89532 50.3065012 136.879634 50.3065012 135.750188 54.228188 134.890405 54.228188 132.982598 48.1111036 134.206911 48.1111036"></polygon>
                <path d="M143.982667,49.1052699 C142.877125,49.1052699 142.224258,50.0845711 142.224258,51.0541614 C142.224258,51.9774386 142.685149,53.1143542 143.982667,53.1143542 C145.279439,53.1143542 145.74033,51.9774386 145.74033,51.0541614 C145.74033,50.0845711 145.08821,49.1052699 143.982667,49.1052699 M143.982667,54.2684506 C142.153294,54.2684506 141.015631,52.8671012 141.015631,51.1019687 C141.015631,49.3204024 142.192137,47.9511735 143.982667,47.9511735 C145.772451,47.9511735 146.949704,49.3204024 146.949704,51.1019687 C146.949704,52.8671012 145.812041,54.2684506 143.982667,54.2684506" id="Fill-24" fill="#646464"></path>
                <path d="M148.698627,50.8711494 L148.849518,50.8711494 C149.494169,50.8711494 149.94759,50.6791735 149.94759,49.9486193 C149.94759,49.2083542 149.477735,49.0656795 148.857735,49.0656795 L148.698627,49.0656795 L148.698627,50.8711494 Z M151.585735,54.1085952 L150.170193,54.1085952 L148.713566,51.6905952 L148.698627,51.6905952 L148.698627,54.1085952 L147.52959,54.1085952 L147.52959,48.1110289 L149.111711,48.1110289 C150.297181,48.1110289 151.116627,48.6354145 151.116627,49.9164988 C151.116627,50.6791735 150.694578,51.4440892 149.890819,51.579294 L151.585735,54.1085952 Z" id="Fill-26" fill="#646464"></path>
                <polygon id="Clip-29" points="156.580843 54.1085952 156.580843 48.1110289 151.975961 48.1110289 151.975961 54.1085952 156.580843 54.1085952"></polygon>
                <polygon id="Fill-28" fill="#646464" points="155.013961 48.1110289 156.453407 48.1110289 154.178829 50.8786193 156.581142 54.1085952 155.077455 54.1085952 153.160684 51.4119687 153.144998 51.4119687 153.144998 54.1085952 151.975961 54.1085952 151.975961 48.1110289 153.144998 48.1110289 153.144998 50.6403301 153.160684 50.6403301"></polygon>
                <path d="M92.1457373,28.8814675 L92.1457373,29.4110819 C92.1457373,35.3473952 89.1077373,40.6151542 82.5865325,40.6151542 C76.4552554,40.6151542 72.5813759,35.4310578 72.5813759,29.6336843 C72.5813759,23.642094 76.5673036,18.4863831 82.8375205,18.4863831 C86.404388,18.4863831 89.5253036,20.2978289 91.1417855,23.5031542 L87.519641,25.4535398 C86.6830145,23.5584313 84.8999542,22.1092747 82.7262193,22.1092747 C78.7686771,22.1092747 76.8175446,26.1504795 76.8175446,29.6336843 C76.8175446,33.1176361 78.7963157,36.9915157 82.7538578,36.9915157 C85.3182675,36.9915157 87.4636169,34.7617566 87.5472795,32.2264795 L83.0877614,32.2264795 L83.0877614,28.8814675 L92.1457373,28.8814675 Z" id="Fill-31" fill="#646464"></path>
                <path d="M97.9738867,27.7947494 L98.0299108,27.7947494 C98.8097663,26.5958337 99.9802964,25.9280265 101.429453,25.9280265 C101.987453,25.9280265 102.543959,26.0662193 103.045935,26.2619301 L102.571598,29.8848217 C102.098007,29.5501711 101.541501,29.3835928 100.955863,29.3835928 C98.2532602,29.3835928 97.9738867,31.7799301 97.9738867,33.898388 L97.9738867,40.0565566 L94.0723687,40.0565566 L94.0723687,26.3732313 L97.9738867,26.3732313 L97.9738867,27.7947494 Z" id="Fill-33" fill="#646464"></path>
                <path d="M107.31146,33.2292361 C107.31146,35.0683205 108.538014,37.0478386 110.544424,37.0478386 C112.550834,37.0478386 113.776641,35.0683205 113.776641,33.2292361 C113.776641,31.3333807 112.550834,29.3829952 110.544424,29.3829952 C108.538014,29.3829952 107.31146,31.3333807 107.31146,33.2292361 M117.734183,33.2292361 C117.734183,37.4654048 114.83587,40.5041518 110.544424,40.5041518 C106.252231,40.5041518 103.353918,37.4654048 103.353918,33.2292361 C103.353918,28.9661759 106.280617,25.9281759 110.544424,25.9281759 C114.808231,25.9281759 117.734183,28.9661759 117.734183,33.2292361" id="Fill-35" fill="#646464"></path>
                <path d="M123.394858,26.3733807 L123.394858,33.7864892 C123.394858,35.347694 123.645846,37.2144169 125.62387,37.2144169 C127.601894,37.2144169 127.853629,35.347694 127.853629,33.7864892 L127.853629,26.3733807 L131.755147,26.3733807 L131.755147,34.4281518 C131.755147,38.4133325 129.69346,40.5034048 125.62387,40.5034048 C121.555773,40.5034048 119.49334,38.4133325 119.49334,34.4281518 L119.49334,26.3733807 L123.394858,26.3733807 Z" id="Fill-37" fill="#646464"></path>
                <path d="M144.46567,33.2010747 C144.46567,31.3627373 143.239863,29.3832193 141.232706,29.3832193 C139.226296,29.3832193 138.000489,31.3627373 138.000489,33.2010747 C138.000489,35.040906 139.226296,37.0473157 141.232706,37.0473157 C143.239863,37.0473157 144.46567,35.040906 144.46567,33.2010747 L144.46567,33.2010747 Z M138.390417,27.6277976 C139.28232,26.5685687 140.731477,25.927653 142.180634,25.927653 C146.054513,25.927653 148.423959,29.5505446 148.423959,33.1457976 C148.423959,36.8799904 146.138176,40.5036289 142.096971,40.5036289 C140.703839,40.5036289 139.226296,39.8896048 138.446441,38.7750988 L138.390417,38.7750988 L138.390417,45.9648578 L134.488152,45.9648578 L134.488152,26.3736048 L138.390417,26.3736048 L138.390417,27.6277976 Z" id="Fill-39" fill="#646464"></path>
                <polygon id="Fill-107" fill="#FFFFFF" points="0.00995412844 61.5717231 60.8946177 61.5717231 60.8946177 0.465476923 0.00995412844 0.465476923"></polygon>
                <path d="M56.7395275,26.3883923 L60.8941911,26.3883923 L60.8941911,22.6440692 C60.1926621,24.4735462 58.6497722,25.8833308 56.7395275,26.3883923" id="Fill-109" fill="#005E83"></path>
                <path d="M23.324419,6.78008154 C36.3937156,6.78008154 42.9956728,14.7766508 45.2344037,18.76802 L30.4525229,24.43482 C28.7247706,21.5575431 26.3087615,20.8669585 23.3831957,20.8669585 C17.9463456,20.8669585 15.116055,26.4970354 15.116055,31.4818354 C15.116055,36.2553585 17.7937156,41.3455585 23.3831957,41.3455585 C30.6345413,41.3455585 31.0962232,35.1021585 31.0962232,35.1021585 L23.8562538,35.1021585 L23.8562538,26.3887738 L53.6190979,26.3887738 C50.991682,25.6929431 49.0511009,23.29402 49.0511009,20.4329585 C49.0511009,17.0277277 51.7951223,14.26682 55.179526,14.26682 C57.7889297,14.26682 60.0110703,15.9107738 60.8946177,18.2233738 L60.8946177,0.465143077 L0.00995412844,0.465143077 L0.00995412844,20.5607738 C5.00503058,11.3795277 13.7006728,6.78008154 23.324419,6.78008154" id="Fill-110" fill="#005E83"></path>
                <path d="M47.3066162,53.9584092 L47.3066162,36.4515169 C45.3627171,46.8493938 35.7361269,54.2440862 23.1763869,54.2440862 C8.66089755,54.2440862 1.81767125,44.2353785 0.0102859327,40.6059938 L0.0102859327,61.5720092 L60.8944755,61.5720092 L60.8944755,53.9584092 L47.3066162,53.9584092 Z" id="Fill-111" fill="#005E83"></path>
            </g>
        </g>
    </g>
</svg>